# xmcd CD database file
#
# Track frame offsets:
#	150
#	14080
#	72230
#	102272
#	113630
#	145240
#	169273
#	217991
#	230923
#	248328
#	275590
#
# Disc length: 3848 seconds
#
# Revision: 0
# Processed by: cddbd v1.5.1PL2 Copyright (c) Steve Scherf et al.
# Submitted via: CDex 1.51
#
DISCID=9e0f060b
DTITLE=Kenny Dorham,  Chris Connor, Curtis Fuller, Herbie Mann, Zoot Sims - hot stuff from brazil
DYEAR=1961
DGENRE=Jazz
TTITLE0=day in, day out
TTITLE1=wee dot
TTITLE2=halley´s comet
TTITLE3=hallelujah, i love him so
TTITLE4=the red door
TTITLE5=spring can really hang you up to the most
TTITLE6=a night in tunesia
TTITLE7=autumn leaves
TTITLE8=i get a kick out of you
TTITLE9=it´s all right with me
TTITLE10=blow, gabriel, blow
EXTD=YEAR: 1961
EXTT0=
EXTT1=
EXTT2=
EXTT3=
EXTT4=
EXTT5=
EXTT6=
EXTT7=
EXTT8=
EXTT9=
EXTT10=
PLAYORDER=
